{"glyphs":{"0":{"ha":833,"x_min":90,"x_max":743,"o":"m 416 820 q 590 767 516 820 q 703 619 664 713 q 743 402 743 524 q 703 185 743 280 q 590 38 664 91 q 416 -15 516 -15 q 243 38 317 -15 q 130 185 169 91 q 90 402 90 280 q 130 619 90 524 q 243 767 169 713 q 416 820 317 820 m 416 666 q 309 599 346 666 q 272 402 272 532 q 309 205 272 272 q 416 139 346 139 q 524 205 487 139 q 561 402 561 272 q 524 599 561 532 q 416 666 487 666 z "},"1":{"ha":833,"x_min":126,"x_max":724,"o":"m 682 139 q 707 133 698 139 q 720 113 715 127 q 724 69 724 98 q 720 26 724 41 q 707 5 715 11 q 682 0 698 0 l 185 0 q 160 5 169 0 q 147 26 151 11 q 142 69 142 41 q 147 113 142 98 q 160 133 151 127 q 185 139 169 139 l 352 139 l 352 596 l 210 515 q 189 509 198 509 q 164 521 176 509 q 140 559 152 533 q 126 609 126 589 q 133 633 126 623 q 153 650 139 642 l 439 811 q 477 822 458 822 q 509 811 497 822 q 522 779 522 800 l 522 139 l 682 139 z "},"2":{"ha":833,"x_min":107,"x_max":719,"o":"m 407 820 q 558 789 496 820 q 653 703 621 758 q 686 572 686 647 q 655 446 686 504 q 557 324 624 389 l 372 146 l 563 146 l 563 208 q 578 241 563 232 q 636 251 594 251 q 699 241 680 251 q 719 208 719 231 l 719 44 q 709 11 719 21 q 675 0 699 0 l 150 0 q 125 6 134 0 q 112 26 116 12 q 107 70 107 41 q 111 111 107 97 q 123 133 114 124 l 414 413 q 492 500 471 467 q 513 569 513 534 q 486 644 513 616 q 408 673 459 673 q 290 644 349 673 l 290 549 q 275 516 290 526 q 217 507 259 507 q 154 516 174 507 q 134 549 134 526 l 134 710 q 163 753 134 738 q 286 803 224 787 q 407 820 349 820 z "},"3":{"ha":833,"x_min":124,"x_max":709,"o":"m 400 820 q 611 761 537 820 q 686 589 686 701 q 590 423 686 473 q 678 352 646 397 q 709 241 709 306 q 623 50 709 115 q 382 -15 537 -15 q 150 37 248 -15 q 124 81 124 50 q 136 130 124 99 q 187 186 159 186 q 201 183 193 186 q 292 151 245 162 q 382 139 338 139 q 491 166 454 139 q 528 243 528 193 q 498 316 528 292 q 412 341 469 341 l 342 341 q 309 356 319 341 q 300 414 300 372 q 309 471 300 456 q 342 487 319 487 l 394 487 q 484 509 454 487 q 513 579 513 532 q 485 649 513 625 q 401 673 456 673 q 297 657 350 673 l 297 604 q 281 570 297 580 q 224 561 266 561 q 161 571 180 561 q 141 604 141 581 l 141 730 q 174 774 141 761 q 286 808 228 795 q 400 820 344 820 z "},"4":{"ha":833,"x_min":81,"x_max":745,"o":"m 514 820 q 569 804 553 820 q 585 759 585 789 l 585 390 l 702 390 q 727 384 718 390 q 740 363 736 378 q 745 320 745 349 q 740 277 745 292 q 727 256 736 262 q 702 251 718 251 l 585 251 l 585 139 l 682 139 q 707 133 698 139 q 720 113 715 127 q 724 69 724 98 q 720 26 724 41 q 707 5 715 11 q 682 0 698 0 l 300 0 q 275 5 284 0 q 262 26 267 11 q 258 69 258 41 q 262 113 258 98 q 275 133 267 127 q 300 139 284 139 l 416 139 l 416 251 l 124 251 q 99 256 108 251 q 86 277 90 262 q 81 320 81 292 q 94 380 81 364 l 413 773 q 455 808 431 796 q 514 820 479 820 m 273 390 l 422 390 l 433 588 l 273 390 z "},"5":{"ha":833,"x_min":119,"x_max":709,"o":"m 625 805 q 658 789 648 805 q 667 732 667 774 q 658 674 667 690 q 625 659 648 659 l 325 659 l 315 508 q 446 533 380 533 q 589 499 530 533 q 679 403 648 465 q 709 262 709 342 q 624 55 709 125 q 389 -15 539 -15 q 261 1 325 -15 q 145 45 198 17 q 119 89 119 60 q 131 138 119 107 q 182 195 154 195 q 196 191 188 195 q 389 139 300 139 q 490 172 452 139 q 528 262 528 204 q 497 348 528 317 q 410 379 466 379 q 279 355 346 379 q 224 344 251 344 q 162 354 180 344 q 146 388 144 364 l 168 761 q 179 795 170 785 q 212 805 189 805 l 625 805 z "},"6":{"ha":833,"x_min":109,"x_max":731,"o":"m 663 820 q 690 803 680 821 q 703 747 700 785 q 705 717 705 736 q 677 656 705 658 q 470 624 552 650 q 343 549 389 598 q 285 423 298 500 q 367 483 321 464 q 471 503 412 503 q 606 470 547 503 q 698 380 665 438 q 731 248 731 323 q 692 112 731 172 q 584 19 653 52 q 428 -15 515 -15 q 277 20 342 -15 q 167 119 211 54 q 124 220 139 161 q 109 347 109 279 q 172 594 109 490 q 359 755 235 697 q 663 820 484 813 m 433 359 q 363 345 393 359 q 315 307 332 332 q 298 252 298 283 q 314 194 298 220 q 358 152 329 168 q 427 136 388 136 q 521 166 486 136 q 556 248 556 197 q 523 329 556 300 q 433 359 490 359 z "},"7":{"ha":833,"x_min":127,"x_max":732,"o":"m 690 805 q 715 799 706 805 q 728 779 724 793 q 732 735 732 764 q 726 686 732 702 l 444 16 q 420 -7 437 1 q 380 -15 404 -15 q 342 -10 361 -15 q 292 12 311 -3 q 273 47 273 27 q 277 66 273 56 l 532 659 l 283 659 l 283 529 q 268 496 283 505 q 210 486 252 486 q 147 496 167 486 q 127 529 127 506 l 127 761 q 138 795 127 785 q 172 805 149 805 l 690 805 z "},"8":{"ha":833,"x_min":116,"x_max":717,"o":"m 416 820 q 562 789 499 820 q 657 706 624 759 q 690 591 690 654 q 661 486 690 528 q 580 420 632 444 q 681 348 644 396 q 717 227 717 300 q 679 98 717 153 q 574 14 642 43 q 416 -15 506 -15 q 259 14 327 -15 q 154 98 191 43 q 116 227 116 153 q 152 348 116 300 q 253 420 188 396 q 172 486 201 443 q 142 591 142 528 q 176 706 142 654 q 271 789 209 759 q 416 820 334 820 m 416 672 q 340 646 368 672 q 311 577 311 620 q 339 509 311 534 q 416 483 367 483 q 494 509 466 483 q 522 577 522 534 q 493 646 522 620 q 416 672 465 672 m 416 351 q 327 321 358 351 q 296 241 296 292 q 327 162 296 191 q 416 133 358 133 q 506 162 475 133 q 537 241 537 191 q 506 321 537 292 q 416 351 475 351 z "},"9":{"ha":833,"x_min":102,"x_max":724,"o":"m 405 820 q 556 785 490 820 q 666 686 622 751 q 709 585 694 644 q 724 458 724 526 q 600 116 724 237 q 211 -15 475 -5 q 183 2 193 -16 q 170 58 174 20 q 169 88 169 69 q 197 149 169 147 q 393 181 320 155 q 502 254 466 206 q 548 382 538 302 q 466 322 511 341 q 361 302 420 302 q 227 335 286 302 q 135 425 168 367 q 102 557 102 482 q 141 693 102 633 q 249 786 180 753 q 405 820 318 820 m 406 669 q 312 638 347 669 q 277 557 277 608 q 310 476 277 505 q 400 446 342 446 q 470 460 439 446 q 517 498 500 473 q 534 553 534 522 q 519 611 534 585 q 474 653 504 637 q 406 669 445 669 z "},"!":{"ha":833,"x_min":309,"x_max":524,"o":"m 494 861 q 517 852 510 861 q 522 827 524 844 l 484 381 q 416 342 480 342 q 349 381 353 342 l 311 827 q 316 852 309 844 q 338 861 323 861 l 494 861 m 416 224 q 497 214 472 224 q 522 181 522 204 l 522 36 q 497 3 522 13 q 416 -7 472 -7 q 336 3 361 -7 q 311 36 311 13 l 311 181 q 336 214 311 204 q 416 224 361 224 z "},",":{"ha":833,"x_min":239,"x_max":532,"o":"m 508 240 q 526 234 519 240 q 532 218 532 228 q 527 197 532 208 l 366 -167 q 294 -199 353 -199 q 254 -190 269 -199 q 239 -163 239 -180 q 240 -155 239 -157 l 308 213 q 320 233 311 226 q 343 240 329 240 l 508 240 z "},"-":{"ha":833,"x_min":115,"x_max":718,"o":"m 675 471 q 700 465 691 471 q 713 443 709 459 q 718 395 718 427 q 713 347 718 363 q 700 325 709 330 q 675 319 691 319 l 158 319 q 133 325 142 319 q 120 347 124 330 q 115 395 115 363 q 120 443 115 427 q 133 465 124 459 q 158 471 142 471 l 675 471 z "},".":{"ha":833,"x_min":304,"x_max":528,"o":"m 416 251 q 502 241 475 251 q 528 208 528 231 l 528 36 q 502 3 528 13 q 416 -7 475 -7 q 331 3 357 -7 q 304 36 304 13 l 304 208 q 331 241 304 231 q 416 251 357 251 z "},"/":{"ha":833,"x_min":108,"x_max":725,"o":"m 618 949 q 694 934 663 949 q 725 896 725 919 q 722 882 725 888 l 271 -215 q 215 -244 258 -244 q 139 -229 170 -244 q 108 -191 108 -214 q 111 -178 108 -184 l 562 920 q 618 949 574 949 z "},":":{"ha":833,"x_min":304,"x_max":528,"o":"m 416 403 q 331 413 357 403 q 304 446 304 422 l 304 591 q 331 624 304 614 q 416 633 357 633 q 502 624 475 633 q 528 591 528 614 l 528 446 q 502 413 528 422 q 416 403 475 403 m 416 -7 q 331 3 357 -7 q 304 36 304 13 l 304 181 q 331 214 304 204 q 416 224 357 224 q 502 214 475 224 q 528 181 528 204 l 528 36 q 502 3 528 13 q 416 -7 475 -7 z "},"?":{"ha":833,"x_min":141,"x_max":677,"o":"m 407 861 q 607 797 538 861 q 677 620 677 733 q 626 472 677 526 q 469 389 574 418 l 465 330 q 448 306 463 313 q 396 298 433 298 q 344 306 359 298 q 328 330 329 313 l 319 472 q 340 507 318 502 l 410 520 q 483 554 459 530 q 507 620 507 578 q 480 690 507 666 q 401 713 453 713 q 297 693 350 713 l 297 631 q 281 597 297 607 q 224 588 266 588 q 161 598 180 588 q 141 631 141 608 l 141 760 q 169 801 141 787 q 407 861 295 861 m 396 197 q 471 187 448 197 q 494 154 494 177 l 494 36 q 471 3 494 13 q 396 -7 448 -7 q 321 3 344 -7 q 298 36 298 13 l 298 154 q 321 187 298 177 q 396 197 344 197 z "},"A":{"ha":833,"x_min":-7,"x_max":840,"o":"m 473 805 q 517 794 500 805 q 541 761 534 784 l 738 139 l 797 139 q 822 134 813 139 q 835 113 831 128 q 840 70 840 98 q 835 26 840 41 q 822 6 831 12 q 797 0 813 0 l 509 0 q 484 6 493 0 q 471 26 475 12 q 467 70 467 41 q 471 113 467 98 q 484 134 475 128 q 509 139 493 139 l 568 139 l 537 237 l 290 237 l 260 139 l 310 139 q 335 134 326 139 q 348 113 344 128 q 353 70 353 98 q 348 26 353 41 q 335 6 344 12 q 310 0 326 0 l 36 0 q 11 6 20 0 q -2 26 2 12 q -7 70 -7 41 q -2 113 -7 98 q 11 134 2 128 q 36 139 20 139 l 93 139 l 264 666 l 151 666 q 126 672 135 666 q 113 692 117 677 q 109 736 109 707 q 113 779 109 764 q 126 800 117 794 q 151 805 135 805 l 473 805 m 413 666 l 330 376 l 498 376 l 417 666 l 413 666 z "},"B":{"ha":833,"x_min":47,"x_max":772,"o":"m 444 805 q 653 747 585 805 q 722 586 722 689 q 694 491 722 530 q 617 427 667 451 q 772 233 772 385 q 697 59 772 119 q 481 0 622 0 l 90 0 q 65 5 74 0 q 52 26 56 11 q 47 69 47 41 q 52 113 47 98 q 65 133 56 127 q 90 139 74 139 l 163 139 l 163 666 l 90 666 q 65 671 74 666 q 52 692 56 677 q 47 735 47 707 q 52 779 47 764 q 65 799 56 793 q 90 805 74 805 l 444 805 m 332 484 l 429 484 q 519 506 490 484 q 549 572 549 528 q 520 638 549 618 q 429 659 492 659 l 332 659 l 332 484 m 332 146 l 463 146 q 594 240 594 146 q 562 314 594 290 q 463 338 530 338 l 332 338 l 332 146 z "},"C":{"ha":833,"x_min":70,"x_max":764,"o":"m 682 820 q 740 810 724 820 q 755 777 755 801 l 755 517 q 735 484 755 494 q 666 474 714 474 q 617 478 634 474 q 593 492 600 483 q 586 517 586 500 q 549 625 586 585 q 444 666 512 666 q 300 598 349 666 q 252 403 252 530 q 303 208 252 277 q 450 139 355 139 q 564 155 509 139 q 682 203 618 171 q 702 209 692 209 q 755 153 734 209 q 764 106 764 127 q 733 57 764 72 q 444 -15 588 -15 q 248 36 332 -15 q 116 181 163 87 q 70 403 70 276 q 115 624 70 529 q 241 769 161 718 q 423 820 321 820 q 600 734 542 820 l 600 777 q 619 810 600 800 q 682 820 639 820 z "},"D":{"ha":833,"x_min":41,"x_max":783,"o":"m 403 805 q 607 758 522 805 q 738 621 692 711 q 783 403 783 530 q 738 185 783 275 q 607 47 692 94 q 403 0 522 0 l 83 0 q 58 5 67 0 q 45 26 50 11 q 41 69 41 41 q 45 113 41 98 q 58 133 50 127 q 83 139 67 139 l 149 139 l 149 666 l 83 666 q 58 671 67 666 q 45 692 50 677 q 41 735 41 707 q 45 779 41 764 q 58 799 50 793 q 83 805 67 805 l 403 805 m 319 146 l 389 146 q 548 211 494 146 q 602 403 602 277 q 548 594 602 529 q 389 659 494 659 l 319 659 l 319 146 z "},"E":{"ha":833,"x_min":41,"x_max":760,"o":"m 702 805 q 736 795 726 805 q 746 761 746 785 l 746 556 q 726 523 746 533 q 663 513 707 513 q 606 523 621 513 q 590 556 590 532 l 590 659 l 319 659 l 319 488 l 484 488 q 517 472 508 488 q 527 414 527 456 q 517 357 527 372 q 484 342 508 342 l 319 342 l 319 146 l 597 146 l 597 283 q 617 316 597 306 q 682 326 637 326 q 743 316 727 326 q 760 283 760 307 l 760 44 q 749 11 760 21 q 715 0 739 0 l 83 0 q 58 5 67 0 q 45 26 50 11 q 41 69 41 41 q 45 113 41 98 q 58 133 50 127 q 83 139 67 139 l 149 139 l 149 666 l 83 666 q 58 671 67 666 q 45 692 50 677 q 41 735 41 707 q 45 779 41 764 q 58 799 50 793 q 83 805 67 805 l 702 805 z "},"F":{"ha":833,"x_min":41,"x_max":760,"o":"m 715 805 q 749 795 739 805 q 760 761 760 785 l 760 556 q 740 523 760 533 q 677 513 720 513 q 619 523 635 513 q 604 556 604 532 l 604 659 l 339 659 l 339 452 l 545 452 q 578 437 569 452 q 588 379 588 421 q 578 322 588 337 q 545 307 569 307 l 339 307 l 339 139 l 486 139 q 511 133 503 139 q 525 113 520 127 q 529 69 529 98 q 525 26 529 41 q 511 5 520 11 q 486 0 503 0 l 83 0 q 58 5 67 0 q 45 26 50 11 q 41 69 41 41 q 45 113 41 98 q 58 133 50 127 q 83 139 67 139 l 170 139 l 170 666 l 83 666 q 58 671 67 666 q 45 692 50 677 q 41 735 41 707 q 45 779 41 764 q 58 799 50 793 q 83 805 67 805 l 715 805 z "},"G":{"ha":833,"x_min":50,"x_max":806,"o":"m 662 820 q 720 810 704 820 q 735 777 735 801 l 735 544 q 714 511 735 521 q 646 501 694 501 q 596 506 614 501 q 572 519 579 510 q 566 544 566 528 q 530 634 566 602 q 423 666 495 666 q 280 598 329 666 q 231 403 231 530 q 283 208 231 277 q 430 139 335 139 q 572 159 505 139 l 572 273 l 441 273 q 416 278 425 273 q 403 298 408 283 q 399 342 399 313 q 403 385 399 370 q 416 406 408 400 q 441 412 425 412 l 763 412 q 788 406 779 412 q 801 385 797 400 q 806 342 806 370 q 801 298 806 313 q 788 278 797 283 q 763 273 779 273 l 742 273 l 742 97 q 735 68 742 81 q 718 50 729 56 q 579 1 654 18 q 423 -15 504 -15 q 227 36 312 -15 q 96 181 142 87 q 50 403 50 276 q 95 624 50 529 q 221 769 140 718 q 403 820 301 820 q 579 740 522 820 l 579 777 q 599 810 579 800 q 662 820 618 820 z "},"H":{"ha":833,"x_min":34,"x_max":799,"o":"m 756 805 q 781 799 772 805 q 794 779 790 793 q 799 735 799 764 q 794 692 799 707 q 781 671 790 677 q 756 666 772 666 l 718 666 l 718 139 l 756 139 q 781 133 772 139 q 794 113 790 127 q 799 69 799 98 q 794 26 799 41 q 781 5 790 11 q 756 0 772 0 l 503 0 q 477 5 486 0 q 464 26 469 11 q 460 69 460 41 q 464 113 460 98 q 477 133 469 127 q 503 139 486 139 l 548 139 l 548 342 l 285 342 l 285 139 l 330 139 q 355 133 347 139 q 369 113 364 127 q 373 69 373 98 q 369 26 373 41 q 355 5 364 11 q 330 0 347 0 l 77 0 q 52 5 60 0 q 38 26 43 11 q 34 69 34 41 q 38 113 34 98 q 52 133 43 127 q 77 139 60 139 l 115 139 l 115 666 l 77 666 q 52 671 60 666 q 38 692 43 677 q 34 735 34 707 q 38 779 34 764 q 52 799 43 793 q 77 805 60 805 l 330 805 q 355 799 347 805 q 369 779 364 793 q 373 735 373 764 q 369 692 373 707 q 355 671 364 677 q 330 666 347 666 l 285 666 l 285 488 l 548 488 l 548 666 l 503 666 q 477 671 486 666 q 464 692 469 677 q 460 735 460 707 q 464 779 460 764 q 477 799 469 793 q 503 805 486 805 l 756 805 z "},"I":{"ha":833,"x_min":115,"x_max":718,"o":"m 661 805 q 686 799 677 805 q 700 779 695 793 q 704 735 704 764 q 700 692 704 707 q 686 671 695 677 q 661 666 677 666 l 501 666 l 501 139 l 675 139 q 700 133 691 139 q 713 113 709 127 q 718 69 718 98 q 713 26 718 41 q 700 5 709 11 q 675 0 691 0 l 158 0 q 133 5 142 0 q 120 26 124 11 q 115 69 115 41 q 120 113 115 98 q 133 133 124 127 q 158 139 142 139 l 332 139 l 332 666 l 172 666 q 146 671 155 666 q 133 692 138 677 q 129 735 129 707 q 133 779 129 764 q 146 799 138 793 q 172 805 155 805 l 661 805 z "},"J":{"ha":833,"x_min":67,"x_max":799,"o":"m 756 805 q 781 799 772 805 q 794 779 790 793 q 799 735 799 764 q 794 692 799 707 q 781 671 790 677 q 756 666 772 666 l 630 666 l 630 246 q 557 51 630 116 q 342 -15 484 -15 q 78 85 183 -15 q 67 119 67 96 l 67 338 q 88 371 67 361 q 157 381 109 381 q 206 377 189 381 q 230 363 223 372 q 237 338 237 355 l 237 162 q 349 139 283 139 q 433 169 405 139 q 460 260 460 198 l 460 666 l 253 666 q 228 671 237 666 q 215 692 219 677 q 210 735 210 707 q 215 779 210 764 q 228 799 219 793 q 253 805 237 805 l 756 805 z "},"K":{"ha":833,"x_min":34,"x_max":833,"o":"m 766 805 q 791 799 783 805 q 805 779 800 793 q 809 735 809 764 q 805 692 809 707 q 791 671 800 677 q 766 666 783 666 l 737 666 l 500 435 q 569 414 538 433 q 623 363 600 395 q 652 316 639 340 q 681 258 665 292 q 715 191 705 208 q 746 153 730 166 q 783 139 762 139 l 790 139 q 815 133 806 139 q 828 113 824 127 q 833 69 833 98 q 828 26 833 41 q 815 5 824 11 q 790 0 806 0 l 696 0 q 626 25 654 0 q 572 96 597 51 q 540 164 557 125 q 515 216 528 190 q 491 258 502 241 q 452 300 473 285 q 407 315 430 315 q 353 292 377 315 l 319 258 l 319 139 l 397 139 q 422 133 413 139 q 435 113 431 127 q 439 69 439 98 q 435 26 439 41 q 422 5 431 11 q 397 0 413 0 l 77 0 q 52 5 60 0 q 38 26 43 11 q 34 69 34 41 q 38 113 34 98 q 52 133 43 127 q 77 139 60 139 l 149 139 l 149 666 l 77 666 q 52 671 60 666 q 38 692 43 677 q 34 735 34 707 q 38 779 34 764 q 52 799 43 793 q 77 805 60 805 l 351 805 q 376 799 367 805 q 389 779 385 793 q 393 735 393 764 q 389 692 393 707 q 376 671 385 677 q 351 666 367 666 l 319 666 l 319 449 l 538 666 l 503 666 q 477 671 486 666 q 464 692 469 677 q 460 735 460 707 q 464 779 460 764 q 477 799 469 793 q 503 805 486 805 l 766 805 z "},"L":{"ha":833,"x_min":41,"x_max":760,"o":"m 500 805 q 525 799 516 805 q 538 779 534 793 q 543 735 543 764 q 538 692 543 707 q 525 671 534 677 q 500 666 516 666 l 352 666 l 352 146 l 590 146 l 590 357 q 611 390 590 380 q 680 400 631 400 q 729 396 711 400 q 753 382 746 391 q 760 357 760 374 l 760 44 q 749 11 760 21 q 715 0 739 0 l 83 0 q 58 5 67 0 q 45 26 50 11 q 41 69 41 41 q 45 113 41 98 q 58 133 50 127 q 83 139 67 139 l 182 139 l 182 666 l 83 666 q 58 671 67 666 q 45 692 50 677 q 41 735 41 707 q 45 779 41 764 q 58 799 50 793 q 83 805 67 805 l 500 805 z "},"M":{"ha":833,"x_min":7,"x_max":826,"o":"m 770 805 q 795 799 786 805 q 808 779 804 793 q 812 735 812 764 q 808 692 812 707 q 795 671 804 677 q 770 666 786 666 l 733 666 l 743 139 l 783 139 q 808 133 800 139 q 822 113 817 127 q 826 69 826 98 q 822 26 826 41 q 808 5 817 11 q 783 0 800 0 l 530 0 q 505 5 513 0 q 491 26 496 11 q 487 69 487 41 q 491 113 487 98 q 505 133 496 127 q 530 139 513 139 l 592 139 l 588 541 l 486 264 q 461 230 477 240 q 417 220 446 220 q 372 230 388 220 q 347 264 357 240 l 244 538 l 240 139 l 303 139 q 328 133 319 139 q 341 113 337 127 q 346 69 346 98 q 341 26 346 41 q 328 5 337 11 q 303 0 319 0 l 50 0 q 24 5 33 0 q 11 26 16 11 q 7 69 7 41 q 11 113 7 98 q 24 133 16 127 q 50 139 33 139 l 90 139 l 100 666 l 63 666 q 38 671 47 666 q 25 692 29 677 q 20 735 20 707 q 25 779 20 764 q 38 799 29 793 q 63 805 47 805 l 256 805 q 279 800 270 805 q 292 784 288 795 l 416 451 l 540 784 q 553 800 544 795 q 576 805 562 805 l 770 805 z "},"N":{"ha":833,"x_min":34,"x_max":812,"o":"m 770 805 q 795 799 786 805 q 808 779 804 793 q 812 735 812 764 q 808 692 812 707 q 795 671 804 677 q 770 666 786 666 l 731 666 l 731 30 q 714 -4 731 7 q 656 -15 697 -15 q 610 -6 625 -15 q 583 21 595 2 l 278 526 l 275 526 l 275 139 l 351 139 q 376 133 367 139 q 389 113 385 127 q 393 69 393 98 q 389 26 393 41 q 376 5 385 11 q 351 0 367 0 l 77 0 q 52 5 60 0 q 38 26 43 11 q 34 69 34 41 q 38 113 34 98 q 52 133 43 127 q 77 139 60 139 l 122 139 l 122 666 l 77 666 q 52 671 60 666 q 38 692 43 677 q 34 735 34 707 q 38 779 34 764 q 52 799 43 793 q 77 805 60 805 l 256 805 q 294 787 283 805 l 575 321 l 578 321 l 578 666 l 515 666 q 490 671 499 666 q 477 692 481 677 q 473 735 473 707 q 477 779 473 764 q 490 799 481 793 q 515 805 499 805 l 770 805 z "},"O":{"ha":833,"x_min":43,"x_max":790,"o":"m 416 820 q 612 769 528 820 q 744 624 697 719 q 790 403 790 530 q 744 181 790 276 q 612 36 697 87 q 416 -15 528 -15 q 220 36 305 -15 q 89 181 136 87 q 43 403 43 276 q 89 624 43 530 q 220 769 136 719 q 416 820 305 820 m 416 666 q 273 598 322 666 q 224 403 224 530 q 273 207 224 275 q 416 139 322 139 q 559 207 511 139 q 608 403 608 275 q 559 598 608 530 q 416 666 511 666 z "},"P":{"ha":833,"x_min":41,"x_max":771,"o":"m 454 805 q 691 735 610 805 q 771 532 771 665 q 691 330 771 400 q 454 259 610 259 l 353 259 l 353 139 l 500 139 q 525 133 516 139 q 538 113 534 127 q 543 69 543 98 q 538 26 543 41 q 525 5 534 11 q 500 0 516 0 l 83 0 q 58 5 67 0 q 45 26 50 11 q 41 69 41 41 q 45 113 41 98 q 58 133 50 127 q 83 139 67 139 l 183 139 l 183 666 l 83 666 q 58 671 67 666 q 45 692 50 677 q 41 735 41 707 q 45 779 41 764 q 58 799 50 793 q 83 805 67 805 l 454 805 m 353 405 l 433 405 q 555 436 514 405 q 596 532 596 467 q 555 628 596 597 q 433 659 514 659 l 353 659 l 353 405 z "},"Q":{"ha":833,"x_min":43,"x_max":790,"o":"m 416 820 q 612 772 528 820 q 744 635 697 724 q 790 430 790 547 q 744 224 790 313 q 612 87 697 136 q 416 39 528 39 q 386 41 399 39 l 314 -31 q 420 -12 367 -12 q 464 -15 441 -12 q 509 -22 488 -18 q 548 -28 528 -25 q 585 -31 568 -31 q 689 -4 638 -31 q 706 0 697 0 q 735 -12 721 0 q 760 -45 750 -24 q 773 -92 773 -71 q 749 -138 773 -121 q 674 -179 711 -167 q 598 -191 637 -191 q 548 -187 574 -191 q 488 -176 523 -183 q 416 -164 444 -168 q 357 -161 388 -161 q 201 -193 277 -161 q 192 -195 197 -195 q 165 -182 179 -195 q 140 -151 151 -170 q 125 -101 125 -125 q 137 -69 125 -81 l 264 66 q 102 203 161 108 q 43 430 43 298 q 89 635 43 547 q 220 772 136 724 q 416 820 305 820 m 416 666 q 274 604 323 666 q 224 430 224 543 q 274 255 224 317 q 416 193 323 193 q 559 255 510 193 q 608 430 608 317 q 559 604 608 543 q 416 666 510 666 z "},"R":{"ha":833,"x_min":41,"x_max":819,"o":"m 441 805 q 661 742 584 805 q 737 559 737 679 q 569 361 737 402 q 627 319 606 347 q 653 281 642 301 q 681 231 665 261 q 706 184 697 198 q 733 150 720 161 q 764 139 747 139 l 777 139 q 802 133 793 139 q 815 113 810 127 q 819 69 819 98 q 815 26 819 41 q 802 5 810 11 q 777 0 793 0 l 711 0 q 624 22 657 0 q 563 94 591 43 q 530 159 549 118 q 505 213 517 191 q 477 258 492 236 q 431 300 456 287 q 369 313 405 313 l 326 313 l 326 139 l 391 139 q 416 133 408 139 q 430 113 425 127 q 434 69 434 98 q 430 26 434 41 q 416 5 425 11 q 391 0 408 0 l 83 0 q 58 5 67 0 q 45 26 50 11 q 41 69 41 41 q 45 113 41 98 q 58 133 50 127 q 83 139 67 139 l 156 139 l 156 666 l 83 666 q 58 671 67 666 q 45 692 50 677 q 41 735 41 707 q 45 779 41 764 q 58 799 50 793 q 83 805 67 805 l 441 805 m 326 458 l 427 458 q 529 483 496 458 q 562 559 562 508 q 529 634 562 610 q 427 659 496 659 l 326 659 l 326 458 z "},"S":{"ha":833,"x_min":101,"x_max":737,"o":"m 621 820 q 683 810 665 820 q 701 777 701 800 l 701 591 q 687 558 701 568 q 639 549 672 549 q 604 554 616 549 q 583 570 591 559 q 501 648 551 621 q 385 675 451 675 q 308 650 336 675 q 279 585 279 625 q 292 553 279 566 q 327 531 304 541 q 429 507 357 519 q 545 482 500 494 q 629 446 589 470 q 737 233 737 380 q 706 103 737 159 q 611 16 674 47 q 456 -15 548 -15 q 264 54 342 -15 l 264 28 q 247 -5 264 5 q 188 -15 231 -15 q 126 -5 144 -15 q 108 28 108 5 l 108 254 q 122 287 108 277 q 170 297 137 297 q 208 291 194 297 q 229 270 222 285 q 317 165 266 200 q 435 130 368 130 q 526 154 495 130 q 557 222 557 178 q 544 268 557 249 q 503 299 530 286 q 455 317 481 310 q 378 334 429 323 q 282 357 320 347 q 211 385 244 367 q 130 457 159 412 q 101 574 101 502 q 134 702 101 646 q 228 789 168 758 q 365 820 288 820 q 465 802 419 820 q 545 752 511 785 l 545 777 q 562 810 545 800 q 621 820 578 820 z "},"T":{"ha":833,"x_min":66,"x_max":766,"o":"m 722 805 q 756 795 746 805 q 766 761 766 785 l 766 475 q 748 442 766 452 q 690 432 729 432 q 638 442 653 432 q 624 475 624 452 l 624 659 l 501 659 l 501 139 l 648 139 q 673 133 664 139 q 686 113 682 127 q 690 69 690 98 q 686 26 690 41 q 673 5 682 11 q 648 0 664 0 l 185 0 q 160 5 169 0 q 147 26 151 11 q 142 69 142 41 q 147 113 142 98 q 160 133 151 127 q 185 139 169 139 l 332 139 l 332 659 l 209 659 l 209 475 q 190 442 209 452 q 133 432 172 432 q 81 442 96 432 q 66 475 66 452 l 66 761 q 77 795 66 785 q 111 805 87 805 l 722 805 z "},"U":{"ha":833,"x_min":34,"x_max":799,"o":"m 756 805 q 781 799 772 805 q 794 779 790 793 q 799 735 799 764 q 794 692 799 707 q 781 671 790 677 q 756 666 772 666 l 724 666 l 724 280 q 687 120 724 186 q 581 19 650 54 q 416 -15 511 -15 q 252 19 321 -15 q 146 120 183 54 q 109 280 109 186 l 109 666 l 77 666 q 52 671 60 666 q 38 692 43 677 q 34 735 34 707 q 38 779 34 764 q 52 799 43 793 q 77 805 60 805 l 330 805 q 355 799 347 805 q 369 779 364 793 q 373 735 373 764 q 369 692 373 707 q 355 671 364 677 q 330 666 347 666 l 278 666 l 278 294 q 315 177 278 216 q 416 139 353 139 q 517 177 480 139 q 555 294 555 216 l 555 666 l 503 666 q 477 671 486 666 q 464 692 469 677 q 460 735 460 707 q 464 779 460 764 q 477 799 469 793 q 503 805 486 805 l 756 805 z "},"V":{"ha":833,"x_min":-7,"x_max":840,"o":"m 797 805 q 822 799 813 805 q 835 779 831 793 q 840 735 840 764 q 835 692 840 707 q 822 671 831 677 q 797 666 813 666 l 751 666 l 505 29 q 475 -5 495 5 q 414 -15 456 -15 q 354 -5 373 -15 q 326 29 334 5 l 88 666 l 36 666 q 11 671 20 666 q -2 692 2 677 q -7 735 -7 707 q -2 779 -7 764 q 11 799 2 793 q 36 805 20 805 l 330 805 q 355 799 347 805 q 369 779 364 793 q 373 735 373 764 q 369 692 373 707 q 355 671 364 677 q 330 666 347 666 l 270 666 l 416 250 l 571 666 l 523 666 q 498 671 507 666 q 485 692 489 677 q 480 735 480 707 q 485 779 480 764 q 498 799 489 793 q 523 805 507 805 l 797 805 z "},"W":{"ha":833,"x_min":-14,"x_max":846,"o":"m 804 805 q 829 799 820 805 q 842 779 838 793 q 846 735 846 764 q 842 692 846 707 q 829 671 838 677 q 804 666 820 666 l 766 666 l 697 29 q 688 3 695 12 q 663 -11 680 -7 q 615 -15 646 -15 q 550 -5 570 -15 q 522 29 530 5 l 414 349 l 304 29 q 275 -5 296 5 q 210 -15 255 -15 q 162 -11 178 -15 q 138 3 145 -7 q 129 29 131 12 l 63 666 l 29 666 q 4 671 13 666 q -9 692 -5 677 q -14 735 -14 707 q -9 779 -14 764 q 4 799 -5 793 q 29 805 13 805 l 296 805 q 321 799 313 805 q 335 779 330 793 q 339 735 339 764 q 335 692 339 707 q 321 671 330 677 q 296 666 313 666 l 217 666 l 253 270 l 352 560 q 370 584 357 576 q 416 592 384 592 q 465 586 450 592 q 484 565 479 579 l 583 270 l 620 666 l 550 666 q 525 671 534 666 q 512 692 516 677 q 507 735 507 707 q 512 779 507 764 q 525 799 516 793 q 550 805 534 805 l 804 805 z "},"X":{"ha":833,"x_min":20,"x_max":812,"o":"m 749 805 q 774 799 766 805 q 788 779 783 793 q 792 735 792 764 q 788 692 792 707 q 774 671 783 677 q 749 666 766 666 l 711 666 l 531 410 l 728 139 l 770 139 q 795 133 786 139 q 808 113 804 127 q 812 69 812 98 q 808 26 812 41 q 795 5 804 11 q 770 0 786 0 l 496 0 q 471 5 479 0 q 457 26 462 11 q 453 69 453 41 q 457 113 453 98 q 471 133 462 127 q 496 139 479 139 l 531 139 l 414 304 l 298 139 l 323 139 q 349 133 340 139 q 362 113 357 127 q 366 69 366 98 q 362 26 366 41 q 349 5 357 11 q 323 0 340 0 l 63 0 q 38 5 47 0 q 25 26 29 11 q 20 69 20 41 q 25 113 20 98 q 38 133 29 127 q 63 139 47 139 l 105 139 l 302 417 l 124 666 l 83 666 q 58 671 67 666 q 45 692 50 677 q 41 735 41 707 q 45 779 41 764 q 58 799 50 793 q 83 805 67 805 l 351 805 q 376 799 367 805 q 389 779 385 793 q 393 735 393 764 q 389 692 393 707 q 376 671 385 677 q 351 666 367 666 l 321 666 l 420 524 l 519 666 l 503 666 q 477 671 486 666 q 464 692 469 677 q 460 735 460 707 q 464 779 460 764 q 477 799 469 793 q 503 805 486 805 l 749 805 z "},"Y":{"ha":833,"x_min":27,"x_max":806,"o":"m 763 805 q 788 799 779 805 q 801 779 797 793 q 806 735 806 764 q 801 692 806 707 q 788 671 797 677 q 763 666 779 666 l 733 666 l 501 311 l 501 139 l 634 139 q 659 133 650 139 q 672 113 668 127 q 677 69 677 98 q 672 26 677 41 q 659 5 668 11 q 634 0 650 0 l 199 0 q 174 5 182 0 q 160 26 165 11 q 156 69 156 41 q 160 113 156 98 q 174 133 165 127 q 199 139 182 139 l 332 139 l 332 312 l 101 666 l 70 666 q 45 671 54 666 q 32 692 36 677 q 27 735 27 707 q 32 779 27 764 q 45 799 36 793 q 70 805 54 805 l 337 805 q 362 799 353 805 q 375 779 371 793 q 380 735 380 764 q 375 692 380 707 q 362 671 371 677 q 337 666 353 666 l 292 666 l 418 468 l 545 666 l 509 666 q 484 671 493 666 q 471 692 475 677 q 467 735 467 707 q 471 779 467 764 q 484 799 475 793 q 509 805 493 805 l 763 805 z "},"Z":{"ha":833,"x_min":94,"x_max":732,"o":"m 690 805 q 715 799 706 805 q 728 779 724 793 q 732 735 732 764 q 717 673 732 694 l 328 146 l 576 146 l 576 296 q 596 329 576 319 q 659 339 616 339 q 717 330 701 339 q 732 296 732 320 l 732 44 q 722 11 732 21 q 688 0 712 0 l 136 0 q 111 5 120 0 q 98 26 102 11 q 94 69 94 41 q 107 132 94 114 l 496 659 l 270 659 l 270 522 q 250 489 270 499 q 187 479 231 479 q 130 489 145 479 q 114 522 114 498 l 114 761 q 124 795 114 785 q 158 805 135 805 l 690 805 z "},"_":{"ha":833,"x_min":-26,"x_max":859,"o":"m 836 -195 q 850 -201 845 -195 q 857 -223 854 -207 q 859 -272 859 -239 q 857 -320 859 -304 q 850 -342 854 -336 q 836 -348 845 -348 l -3 -348 q -17 -342 -12 -348 q -24 -320 -22 -336 q -26 -272 -26 -304 q -24 -223 -26 -239 q -17 -201 -22 -207 q -3 -195 -12 -195 l 836 -195 z "},"a":{"ha":833,"x_min":75,"x_max":800,"o":"m 409 642 q 625 577 558 642 q 691 393 691 513 l 691 197 q 703 154 691 170 q 736 139 714 139 l 757 139 q 782 133 773 139 q 795 113 791 127 q 800 69 800 98 q 795 26 800 41 q 782 5 791 11 q 757 0 773 0 l 681 0 q 607 17 639 0 q 557 72 574 35 q 444 8 504 31 q 321 -15 385 -15 q 189 11 245 -15 q 104 86 134 37 q 75 200 75 134 q 142 347 75 295 q 330 399 209 399 q 522 379 420 399 l 522 399 q 493 466 522 444 q 393 488 465 488 q 303 478 353 488 q 206 452 254 468 q 186 448 195 448 q 156 461 170 448 q 132 503 143 473 q 122 552 122 533 q 153 598 122 587 q 281 631 214 620 q 409 642 349 642 m 347 260 q 274 243 299 260 q 250 193 250 226 q 274 145 250 161 q 343 128 298 128 q 436 147 390 128 q 522 198 481 165 l 522 241 q 347 260 432 260 z "},"b":{"ha":833,"x_min":18,"x_max":767,"o":"m 254 890 q 287 880 277 890 q 296 847 296 870 l 296 562 q 376 621 331 600 q 475 642 422 642 q 630 598 564 642 q 732 480 696 555 q 767 313 767 406 q 732 146 767 221 q 630 28 696 72 q 475 -15 564 -15 q 357 15 410 -15 q 269 100 304 45 l 269 43 q 259 10 269 20 q 227 0 250 0 l 75 0 q 50 6 58 0 q 36 26 41 12 q 32 70 32 41 q 36 113 32 98 q 50 134 41 128 q 75 139 58 139 l 127 139 l 127 751 l 61 751 q 36 756 45 751 q 23 777 27 762 q 18 820 18 791 q 23 863 18 848 q 36 884 27 878 q 61 890 45 890 l 254 890 m 448 488 q 369 467 404 488 q 313 407 334 447 q 292 313 292 368 q 313 219 292 259 q 369 159 334 180 q 448 139 404 139 q 521 160 490 139 q 569 221 552 182 q 585 313 585 260 q 569 406 585 366 q 521 466 552 445 q 448 488 490 488 z "},"c":{"ha":833,"x_min":86,"x_max":731,"o":"m 648 642 q 705 632 690 642 q 721 599 721 623 l 721 381 q 700 348 721 358 q 631 338 680 338 q 582 343 600 338 q 558 356 565 347 q 551 381 551 365 q 537 434 551 410 q 496 473 524 458 q 430 488 469 488 q 345 466 381 488 q 288 405 308 445 q 268 313 268 366 q 288 221 268 261 q 345 160 308 182 q 430 139 381 139 q 537 156 482 139 q 643 203 591 173 q 665 210 655 210 q 719 156 696 210 q 731 106 731 127 q 702 60 731 76 q 569 5 639 24 q 430 -15 500 -15 q 249 27 327 -15 q 129 144 171 69 q 86 313 86 218 q 129 483 86 408 q 245 600 172 558 q 410 642 319 642 q 565 562 519 642 l 565 599 q 585 632 565 622 q 648 642 604 642 z "},"d":{"ha":833,"x_min":66,"x_max":808,"o":"m 663 890 q 696 880 686 890 q 706 847 706 870 l 706 139 l 765 139 q 790 134 781 139 q 803 113 799 128 q 808 70 808 98 q 803 26 808 41 q 790 6 799 12 q 765 0 781 0 l 606 0 q 573 10 583 0 q 564 43 564 20 l 564 100 q 475 15 528 45 q 358 -15 422 -15 q 203 28 269 -15 q 101 146 136 72 q 66 313 66 221 q 101 480 66 406 q 203 598 136 555 q 358 642 269 642 q 456 621 411 642 q 536 562 502 600 l 536 751 l 437 751 q 412 756 420 751 q 398 777 403 762 q 394 820 394 791 q 398 863 394 848 q 412 884 403 878 q 437 890 420 890 l 663 890 m 385 488 q 312 466 343 488 q 264 406 281 445 q 248 313 248 366 q 264 221 248 260 q 312 160 281 182 q 385 139 343 139 q 464 159 429 139 q 520 219 499 180 q 541 313 541 259 q 520 407 541 368 q 464 467 499 447 q 385 488 429 488 z "},"e":{"ha":833,"x_min":89,"x_max":748,"o":"m 426 642 q 602 597 529 642 q 711 474 674 553 q 748 293 748 395 q 738 260 748 270 q 705 251 728 251 l 270 251 q 325 168 283 197 q 433 139 368 139 q 661 176 538 139 q 677 179 669 179 q 703 165 692 179 q 722 119 713 152 q 729 77 729 94 q 721 49 729 59 q 696 33 713 39 q 557 -2 628 11 q 419 -15 487 -15 q 241 27 316 -15 q 128 143 167 69 q 89 313 89 218 q 130 483 89 408 q 247 600 170 557 q 426 642 323 642 m 426 488 q 273 383 302 488 l 571 383 q 522 460 559 433 q 426 488 484 488 z "},"f":{"ha":833,"x_min":113,"x_max":762,"o":"m 522 893 q 728 854 625 893 q 754 837 745 848 q 762 807 762 826 q 755 765 762 789 q 735 722 747 735 q 707 709 724 709 q 688 713 699 709 q 537 739 602 739 q 450 627 450 739 l 450 586 l 661 586 q 694 570 684 586 q 703 513 703 555 q 694 455 703 471 q 661 440 684 440 l 450 440 l 450 139 l 640 139 q 665 133 656 139 q 679 113 674 127 q 683 69 683 98 q 679 26 683 41 q 665 5 674 11 q 640 0 656 0 l 156 0 q 131 5 140 0 q 118 26 122 11 q 113 69 113 41 q 118 113 113 98 q 131 133 122 127 q 156 139 140 139 l 280 139 l 280 440 l 156 440 q 123 455 132 440 q 113 513 113 471 q 123 570 113 555 q 156 586 132 586 l 280 586 l 280 635 q 342 827 280 762 q 522 893 404 893 z "},"g":{"ha":833,"x_min":66,"x_max":808,"o":"m 358 642 q 475 614 422 642 q 564 536 528 587 l 564 584 q 573 617 564 607 q 606 627 583 627 l 765 627 q 790 621 781 627 q 803 600 799 615 q 808 557 808 585 q 803 513 808 528 q 790 493 799 498 q 765 488 781 488 l 706 488 l 706 1 q 626 -205 706 -132 q 388 -278 547 -278 q 260 -267 330 -278 q 128 -236 191 -256 q 96 -189 96 -226 q 104 -142 96 -173 q 127 -96 115 -110 q 157 -81 140 -81 q 173 -84 165 -81 q 381 -124 302 -124 q 500 -90 463 -124 q 536 14 536 -56 l 536 83 q 456 26 502 46 q 358 5 411 5 q 204 46 271 5 q 102 160 138 87 q 66 323 66 232 q 102 487 66 415 q 204 601 138 559 q 358 642 271 642 m 385 488 q 285 445 322 488 q 248 323 248 401 q 285 202 248 245 q 385 159 322 159 q 464 178 429 159 q 520 234 500 197 q 541 323 541 271 q 520 413 541 376 q 464 469 500 450 q 385 488 429 488 z "},"h":{"ha":833,"x_min":32,"x_max":806,"o":"m 267 890 q 300 880 290 890 q 310 847 310 870 l 310 517 q 507 642 391 642 q 615 614 568 642 q 686 537 661 587 q 711 420 711 488 l 711 139 l 764 139 q 789 133 780 139 q 802 113 798 127 q 806 69 806 98 q 802 26 806 41 q 789 5 798 11 q 764 0 780 0 l 510 0 q 485 5 494 0 q 472 26 476 11 q 467 69 467 41 q 472 113 467 98 q 485 133 476 127 q 510 139 494 139 l 542 139 l 542 380 q 524 460 542 433 q 463 488 505 488 q 388 455 423 488 q 331 367 353 422 q 310 250 310 312 l 310 139 l 342 139 q 367 133 358 139 q 380 113 376 127 q 385 69 385 98 q 380 26 385 41 q 367 5 376 11 q 342 0 358 0 l 88 0 q 63 5 72 0 q 50 26 54 11 q 45 69 45 41 q 50 113 45 98 q 63 133 54 127 q 88 139 72 139 l 140 139 l 140 751 l 75 751 q 50 756 58 751 q 36 777 41 762 q 32 820 32 791 q 36 863 32 848 q 50 884 41 878 q 75 890 58 890 l 267 890 z "},"i":{"ha":833,"x_min":113,"x_max":744,"o":"m 468 627 q 501 617 491 627 q 511 584 511 607 l 511 139 l 701 139 q 726 133 718 139 q 740 113 735 127 q 744 69 744 98 q 740 26 744 41 q 726 5 735 11 q 701 0 718 0 l 156 0 q 131 5 140 0 q 118 26 122 11 q 113 69 113 41 q 118 113 113 98 q 131 133 122 127 q 156 139 140 139 l 341 139 l 341 488 l 197 488 q 172 493 180 488 q 158 513 163 498 q 154 557 154 528 q 158 600 154 585 q 172 621 163 615 q 197 627 180 627 l 468 627 m 424 924 q 491 915 472 924 q 511 882 511 905 l 511 770 q 493 738 511 747 q 427 728 475 728 q 360 738 380 728 q 341 770 341 747 l 341 882 q 359 915 341 905 q 424 924 376 924 z "},"j":{"ha":833,"x_min":108,"x_max":626,"o":"m 583 627 q 616 617 606 627 q 626 584 626 607 l 626 -20 q 564 -212 626 -146 q 384 -278 502 -278 q 263 -261 326 -278 q 138 -214 200 -245 q 108 -168 108 -199 q 120 -121 108 -149 q 145 -79 132 -92 q 175 -66 158 -66 q 199 -71 184 -66 q 296 -110 254 -96 q 369 -124 338 -124 q 456 -12 456 -124 l 456 488 l 197 488 q 172 493 180 488 q 158 513 163 498 q 154 557 154 528 q 158 600 154 585 q 172 621 163 615 q 197 627 180 627 l 583 627 m 539 924 q 607 915 587 924 q 626 882 626 905 l 626 770 q 608 738 626 747 q 543 728 590 728 q 476 738 495 728 q 456 770 456 747 l 456 882 q 474 915 456 905 q 539 924 492 924 z "},"k":{"ha":833,"x_min":39,"x_max":793,"o":"m 750 139 q 783 125 774 139 q 793 69 793 111 q 788 26 793 41 q 775 5 784 11 q 750 0 766 0 l 634 0 q 581 27 600 0 l 410 264 l 317 193 l 317 139 l 376 139 q 401 133 392 139 q 414 113 410 127 q 418 69 418 98 q 414 26 418 41 q 401 5 410 11 q 376 0 392 0 l 95 0 q 70 5 79 0 q 57 26 61 11 q 52 69 52 41 q 57 113 52 98 q 70 133 61 127 q 95 139 79 139 l 147 139 l 147 751 l 81 751 q 56 756 65 751 q 43 777 47 762 q 39 820 39 791 q 43 863 39 848 q 56 884 47 878 q 81 890 65 890 l 274 890 q 307 880 297 890 q 317 847 317 870 l 317 357 l 493 501 l 459 501 q 426 514 435 501 q 416 564 416 527 q 426 614 416 601 q 459 627 435 627 l 740 627 q 773 614 764 627 q 783 564 783 601 q 773 514 783 527 q 740 501 764 501 l 713 501 l 544 365 l 709 139 l 750 139 z "},"l":{"ha":833,"x_min":106,"x_max":737,"o":"m 461 890 q 494 880 484 890 q 504 847 504 870 l 504 139 l 694 139 q 720 133 711 139 q 733 113 728 127 q 737 69 737 98 q 733 26 737 41 q 720 5 728 11 q 694 0 711 0 l 149 0 q 124 5 133 0 q 111 26 115 11 q 106 69 106 41 q 111 113 106 98 q 124 133 115 127 q 149 139 133 139 l 334 139 l 334 751 l 176 751 q 151 756 160 751 q 138 777 142 762 q 134 820 134 791 q 138 863 134 848 q 151 884 142 878 q 176 890 160 890 l 461 890 z "},"m":{"ha":833,"x_min":-9,"x_max":789,"o":"m 655 642 q 753 591 718 642 q 789 436 789 540 l 789 43 q 780 10 789 20 q 747 0 770 0 l 663 0 q 630 10 640 0 q 620 43 620 20 l 620 397 q 611 450 620 433 q 585 467 603 467 q 534 418 553 467 q 515 273 515 368 l 515 43 q 506 10 515 20 q 473 0 496 0 l 389 0 q 356 10 366 0 q 346 43 346 20 l 346 397 q 337 450 346 433 q 311 467 329 467 q 260 418 279 467 q 241 273 241 368 l 241 43 q 232 10 241 20 q 199 0 222 0 l 115 0 q 82 10 92 0 q 72 43 72 20 l 72 488 l 33 488 q 8 493 17 488 q -5 513 -1 498 q -9 557 -9 528 q -5 600 -9 585 q 8 621 -1 615 q 33 627 17 627 l 151 627 q 184 617 174 627 q 194 584 194 607 l 194 486 q 269 602 226 563 q 363 642 312 642 q 493 504 464 642 q 566 607 524 572 q 655 642 607 642 z "},"n":{"ha":833,"x_min":39,"x_max":813,"o":"m 513 642 q 622 614 575 642 q 693 537 668 587 q 718 420 718 488 l 718 139 l 770 139 q 795 133 787 139 q 809 113 804 127 q 813 69 813 98 q 809 26 813 41 q 795 5 804 11 q 770 0 787 0 l 517 0 q 492 5 500 0 q 478 26 483 11 q 474 69 474 41 q 478 113 474 98 q 492 133 483 127 q 517 139 500 139 l 549 139 l 549 380 q 530 460 549 433 q 469 488 512 488 q 395 455 430 488 q 338 367 359 422 q 317 250 317 312 l 317 139 l 349 139 q 374 133 365 139 q 387 113 382 127 q 391 69 391 98 q 387 26 391 41 q 374 5 382 11 q 349 0 365 0 l 95 0 q 70 5 79 0 q 57 26 61 11 q 52 69 52 41 q 57 113 52 98 q 70 133 61 127 q 95 139 79 139 l 147 139 l 147 488 l 81 488 q 56 493 65 488 q 43 513 47 498 q 39 557 39 528 q 43 600 39 585 q 56 621 47 615 q 81 627 65 627 l 247 627 q 280 617 270 627 q 290 584 290 607 l 290 486 q 513 642 379 642 z "},"o":{"ha":833,"x_min":75,"x_max":758,"o":"m 416 642 q 597 600 519 642 q 716 483 674 557 q 758 313 758 408 q 716 144 758 218 q 597 27 674 69 q 416 -15 519 -15 q 236 27 313 -15 q 117 144 159 69 q 75 313 75 218 q 117 483 75 408 q 236 600 159 557 q 416 642 313 642 m 416 488 q 332 466 368 488 q 276 406 296 445 q 257 313 257 366 q 276 221 257 260 q 332 160 296 182 q 416 139 368 139 q 501 160 465 139 q 556 221 537 182 q 576 313 576 260 q 556 406 576 366 q 501 466 537 445 q 416 488 465 488 z "},"p":{"ha":833,"x_min":25,"x_max":767,"o":"m 475 642 q 630 598 564 642 q 732 480 696 555 q 767 313 767 406 q 732 146 767 221 q 630 28 696 72 q 475 -15 564 -15 q 376 6 422 -15 q 296 65 331 26 l 296 -124 l 410 -124 q 435 -130 426 -124 q 448 -150 444 -135 q 452 -193 452 -165 q 448 -237 452 -222 q 435 -257 444 -252 q 410 -263 426 -263 l 68 -263 q 43 -258 52 -263 q 30 -237 34 -252 q 25 -194 25 -222 q 30 -151 25 -165 q 43 -130 34 -136 q 68 -124 52 -124 l 127 -124 l 127 488 l 68 488 q 43 493 52 488 q 30 513 34 498 q 25 557 25 528 q 30 600 25 585 q 43 621 34 615 q 68 627 52 627 l 227 627 q 259 617 250 627 q 269 584 269 607 l 269 527 q 357 611 304 581 q 475 642 410 642 m 448 488 q 369 467 404 488 q 313 407 334 447 q 292 313 292 368 q 313 219 292 259 q 369 159 334 180 q 448 139 404 139 q 521 160 490 139 q 569 221 552 182 q 585 313 585 260 q 569 406 585 366 q 521 466 552 445 q 448 488 490 488 z "},"q":{"ha":833,"x_min":66,"x_max":808,"o":"m 358 642 q 475 611 422 642 q 564 527 528 581 l 564 584 q 573 617 564 607 q 606 627 583 627 l 765 627 q 790 621 781 627 q 803 600 799 615 q 808 557 808 585 q 803 513 808 528 q 790 493 799 498 q 765 488 781 488 l 706 488 l 706 -124 l 765 -124 q 790 -130 781 -124 q 803 -151 799 -136 q 808 -194 808 -165 q 803 -237 808 -222 q 790 -258 799 -252 q 765 -263 781 -263 l 423 -263 q 398 -257 407 -263 q 385 -237 389 -252 q 380 -193 380 -222 q 385 -150 380 -165 q 398 -130 389 -135 q 423 -124 407 -124 l 536 -124 l 536 65 q 456 6 502 26 q 358 -15 411 -15 q 203 28 269 -15 q 101 146 136 72 q 66 313 66 221 q 101 480 66 406 q 203 598 136 555 q 358 642 269 642 m 385 488 q 312 466 343 488 q 264 406 281 445 q 248 313 248 366 q 264 221 248 260 q 312 160 281 182 q 385 139 343 139 q 464 159 429 139 q 520 219 499 180 q 541 313 541 259 q 520 407 541 368 q 464 467 499 447 q 385 488 429 488 z "},"r":{"ha":833,"x_min":86,"x_max":767,"o":"m 629 642 q 737 604 686 642 q 767 547 767 582 q 755 494 767 524 q 727 448 743 463 q 695 432 712 432 q 675 437 686 432 q 596 458 637 458 q 498 425 544 458 q 426 334 453 392 q 398 203 398 275 l 398 139 l 593 139 q 618 133 609 139 q 631 113 627 127 q 635 69 635 98 q 631 26 635 41 q 618 5 627 11 q 593 0 609 0 l 129 0 q 104 5 113 0 q 91 26 95 11 q 86 69 86 41 q 91 113 86 98 q 104 133 95 127 q 129 139 113 139 l 229 139 l 229 488 l 149 488 q 124 493 133 488 q 111 513 115 498 q 106 557 106 528 q 111 600 106 585 q 124 621 115 615 q 149 627 133 627 l 335 627 q 368 617 358 627 q 378 584 378 607 l 378 437 q 495 588 429 535 q 629 642 561 642 z "},"s":{"ha":833,"x_min":111,"x_max":726,"o":"m 614 642 q 676 632 658 642 q 694 599 694 622 l 694 456 q 680 423 694 433 q 632 413 665 413 q 583 427 596 413 q 491 488 543 470 q 372 506 439 506 q 309 492 332 506 q 286 454 286 477 q 336 413 286 425 q 427 400 363 406 q 531 385 490 393 q 610 363 573 378 q 695 300 665 340 q 726 195 726 260 q 694 83 726 130 q 602 11 663 36 q 456 -15 541 -15 q 281 33 361 -15 l 281 28 q 261 -5 281 5 q 198 -15 241 -15 q 136 -5 155 -15 q 118 28 118 5 l 118 179 q 134 212 118 201 q 183 222 150 222 q 239 203 224 222 q 326 140 273 160 q 442 121 379 121 q 551 177 551 121 q 535 204 551 194 q 490 221 520 214 q 412 233 473 224 q 294 252 343 241 q 205 285 245 262 q 111 448 111 336 q 143 551 111 507 q 231 618 175 595 q 357 642 287 642 q 538 592 459 642 l 538 599 q 555 632 538 622 q 614 642 572 642 z "},"t":{"ha":833,"x_min":66,"x_max":752,"o":"m 329 820 q 378 815 361 820 q 402 802 395 811 q 409 777 409 793 l 409 586 l 661 586 q 694 570 684 586 q 703 513 703 555 q 694 455 703 471 q 661 440 684 440 l 409 440 l 409 252 q 496 139 409 139 q 569 153 528 139 q 667 192 611 167 q 690 198 682 198 q 717 186 705 198 q 740 147 729 174 q 752 98 752 117 q 745 73 752 83 q 724 56 738 63 q 481 -15 584 -15 q 301 51 363 -15 q 239 243 239 117 l 239 440 l 109 440 q 75 455 85 440 q 66 513 66 471 q 75 570 66 555 q 109 586 85 586 l 239 586 l 239 777 q 260 810 239 800 q 329 820 281 820 z "},"u":{"ha":833,"x_min":34,"x_max":795,"o":"m 657 627 q 690 617 680 627 q 700 584 700 607 l 700 139 l 752 139 q 777 134 768 139 q 790 113 786 128 q 795 70 795 98 q 790 26 795 41 q 777 6 786 12 q 752 0 768 0 l 600 0 q 567 10 577 0 q 557 43 557 20 l 557 141 q 334 -15 468 -15 q 225 12 272 -15 q 154 89 179 39 q 129 206 129 139 l 129 488 l 77 488 q 52 493 60 488 q 38 514 43 499 q 34 557 34 529 q 38 601 34 586 q 52 621 43 616 q 77 627 60 627 l 256 627 q 289 617 279 627 q 298 584 298 607 l 298 246 q 317 166 298 193 q 378 139 335 139 q 452 172 417 139 q 509 260 488 205 q 530 377 530 315 l 530 488 l 458 488 q 433 493 441 488 q 419 514 424 499 q 415 557 415 529 q 419 601 415 586 q 433 621 424 616 q 458 627 441 627 l 657 627 z "},"v":{"ha":833,"x_min":27,"x_max":806,"o":"m 763 627 q 788 621 779 627 q 801 600 797 615 q 806 557 806 585 q 801 513 806 528 q 788 493 797 498 q 763 488 779 488 l 717 488 l 518 29 q 485 -5 508 5 q 414 -15 462 -15 q 345 -5 367 -15 q 312 29 322 5 l 115 488 l 70 488 q 45 493 54 488 q 32 513 36 498 q 27 557 27 528 q 32 600 27 585 q 45 621 36 615 q 70 627 54 627 l 344 627 q 369 621 360 627 q 382 600 378 615 q 387 557 387 585 q 382 513 387 528 q 369 493 378 498 q 344 488 360 488 l 298 488 l 418 189 l 540 488 l 503 488 q 477 493 486 488 q 464 513 469 498 q 460 557 460 528 q 464 600 460 585 q 477 621 469 615 q 503 627 486 627 l 763 627 z "},"w":{"ha":833,"x_min":-14,"x_max":846,"o":"m 804 627 q 829 621 820 627 q 842 600 838 615 q 846 557 846 585 q 842 513 846 528 q 829 493 838 498 q 804 488 820 488 l 776 488 l 677 29 q 653 -5 671 5 q 595 -15 635 -15 q 536 -5 555 -15 q 509 29 517 5 l 414 270 l 317 29 q 289 -5 308 5 q 230 -15 270 -15 q 172 -5 189 -15 q 149 29 155 5 l 52 488 l 29 488 q 4 493 13 488 q -9 513 -5 498 q -14 557 -14 528 q -9 600 -14 585 q 4 621 -5 615 q 29 627 13 627 l 262 627 q 288 621 279 627 q 301 600 296 615 q 305 557 305 585 q 301 513 305 528 q 288 493 296 498 q 262 488 279 488 l 205 488 l 256 224 l 349 454 q 372 483 357 473 q 414 493 387 493 q 458 485 444 493 q 480 459 473 477 l 573 224 l 626 488 l 577 488 q 552 493 561 488 q 539 513 543 498 q 534 557 534 528 q 539 600 534 585 q 552 621 543 615 q 577 627 561 627 l 804 627 z "},"x":{"ha":833,"x_min":47,"x_max":785,"o":"m 736 627 q 761 621 752 627 q 774 600 770 615 q 779 557 779 585 q 774 513 779 528 q 761 493 770 498 q 736 488 752 488 l 696 488 l 532 317 l 708 139 l 743 139 q 768 133 759 139 q 781 113 777 127 q 785 69 785 98 q 781 26 785 41 q 768 5 777 11 q 743 0 759 0 l 482 0 q 457 5 466 0 q 444 26 448 11 q 439 69 439 41 q 444 113 439 98 q 457 133 448 127 q 482 139 466 139 l 492 139 l 403 230 l 319 139 l 330 139 q 355 133 347 139 q 369 113 364 127 q 373 69 373 98 q 369 26 373 41 q 355 5 364 11 q 330 0 347 0 l 90 0 q 65 5 74 0 q 52 26 56 11 q 47 69 47 41 q 52 113 47 98 q 65 133 56 127 q 90 139 74 139 l 127 139 l 299 318 l 132 488 l 97 488 q 72 493 81 488 q 59 513 63 498 q 54 557 54 528 q 59 600 54 585 q 72 621 63 615 q 97 627 81 627 l 351 627 q 376 621 367 627 q 389 600 385 615 q 393 557 393 585 q 389 513 393 528 q 376 493 385 498 q 351 488 367 488 l 342 488 l 429 399 l 511 488 l 496 488 q 471 493 479 488 q 457 513 462 498 q 453 557 453 528 q 457 600 453 585 q 471 621 462 615 q 496 627 479 627 l 736 627 z "},"y":{"ha":833,"x_min":27,"x_max":806,"o":"m 763 627 q 788 621 779 627 q 801 600 797 615 q 806 557 806 585 q 801 513 806 528 q 788 493 797 498 q 763 488 779 488 l 720 488 l 460 -39 q 369 -184 412 -134 q 271 -255 326 -234 q 128 -278 216 -275 q 91 -260 104 -279 q 79 -191 79 -241 q 88 -141 79 -156 q 114 -125 97 -126 q 201 -104 168 -121 q 262 -51 235 -87 q 328 61 290 -14 l 121 488 l 70 488 q 45 493 54 488 q 32 513 36 498 q 27 557 27 528 q 32 600 27 585 q 45 621 36 615 q 70 627 54 627 l 344 627 q 369 621 360 627 q 382 600 378 615 q 387 557 387 585 q 382 513 387 528 q 369 493 378 498 q 344 488 360 488 l 303 488 l 421 230 l 539 488 l 503 488 q 477 493 486 488 q 464 513 469 498 q 460 557 460 528 q 464 600 460 585 q 477 621 469 615 q 503 627 486 627 l 763 627 z "},"z":{"ha":833,"x_min":94,"x_max":732,"o":"m 690 627 q 715 621 706 627 q 728 601 724 616 q 732 557 732 586 q 728 527 732 539 q 711 502 723 515 l 356 139 l 576 139 l 576 223 q 594 256 576 247 q 659 266 612 266 q 707 262 691 266 q 727 249 722 258 q 732 223 732 240 l 732 44 q 722 11 732 21 q 688 0 712 0 l 136 0 q 111 5 120 0 q 98 26 102 11 q 94 69 94 41 q 98 100 94 87 q 115 125 103 112 l 470 488 l 263 488 l 263 410 q 245 377 263 387 q 180 368 228 368 q 133 372 149 368 q 112 385 117 376 q 107 410 107 393 l 107 583 q 118 616 107 606 q 151 627 128 627 l 690 627 z "}}}
